# xmcd
#
# Track frame offsets: 
#        150
#        15450
#        32704
#        48404
#        63096
#        76478
#        88241
#        109474
#        123301
#        135120
#        147978
#        165331
#        177043
#        189167
#        206437
#        218125
#
# Disc length: 3108 seconds
#
# Revision: 0
# Processed by: cddbd v1.5.2PL0 Copyright (c) Steve Scherf et al.
# Submitted via: ExactAudioCopyFreeDBPlugin 1.0
#
DISCID=ce0c2210
DTITLE=Wim Pols and Calyx - Fly back home to you
DYEAR=2000
DGENRE=Country
TTITLE0=His heart is in the right place
TTITLE1=Can you still forgive
TTITLE2=I'm only human
TTITLE3=Lay your treasures up in heaven
TTITLE4=Fly back home to you
TTITLE5=Still waters run deep
TTITLE6=Kneeling can solve a long-standing problem
TTITLE7=Isabel's eyes
TTITLE8=Show me how to go Your way
TTITLE9=The stallion saved the farm
TTITLE10=Thank you tonight
TTITLE11=The girl upon the hill
TTITLE12=A solid thing
TTITLE13=Where does God live
TTITLE14=I know how love feels
TTITLE15=We are children
EXTD=
EXTT0=
EXTT1=
EXTT2=
EXTT3=
EXTT4=
EXTT5=
EXTT6=
EXTT7=
EXTT8=
EXTT9=
EXTT10=
EXTT11=
EXTT12=
EXTT13=
EXTT14=
EXTT15=
PLAYORDER=
